<?xml version="1.0" encoding="UTF-8"?>
<svg width="1024px" height="1024px" viewBox="0 0 1024 1024" version="1.1" xmlns="http://www.w3.org/2000/svg" xmlns:xlink="http://www.w3.org/1999/xlink">
    <title>1 - Layer</title>
    <g id="Template---App-Icons" stroke="none" stroke-width="1" fill="none" fill-rule="evenodd">
        <g id="1---Layer" fill="#FF0000" fill-rule="nonzero">
            <path d="M387.215074,700 L816.860364,700 C827.383746,700 837.186246,690.93709 837.186246,678.973706 C837.186246,667.010843 827.383746,657.947932 816.860364,657.947932 L393.383441,657.947932 C370.522583,657.947932 356.37027,643.447424 352.741339,618.796337 L345.846146,571.668757 L813.961975,571.668757 C862.952181,571.668757 886.533176,542.66774 893.794012,495.177852 L923.550806,297.968415 C924.279119,293.980794 925,287.817836 925,285.280192 C925,269.692015 914.112462,259.541437 896.699833,259.541437 L299.034934,259.541437 L290.68906,202.264021 C287.422799,180.875196 279.802266,170 250.772299,170 L118.683795,170 C107.435074,170 98,179.425219 98,191.025774 C98,202.264021 107.435074,212.051548 118.683795,212.051548 L248.232121,212.051548 L309.195646,625.321603 C315.727425,671.360772 340.04045,700 387.215074,700 Z M426.499629,875 C458.009794,875 483,850.009917 483,818.499981 C483,786.990417 458.009794,762 426.499629,762 C394.990206,762 370,786.990417 370,818.499981 C370,850.009917 394.990206,875 426.499629,875 Z M757.682262,875 C789.089677,875 814,850.009917 814,818.499981 C814,786.990417 789.089677,762 757.682262,762 C726.271889,762 701,786.990417 701,818.499981 C701,850.009917 726.271889,875 757.682262,875 Z" id="Wagen"></path>
        </g>
    </g>
</svg>