<?xml version="1.0" encoding="UTF-8"?>
<svg width="1024px" height="1024px" viewBox="0 0 1024 1024" version="1.1" xmlns="http://www.w3.org/2000/svg" xmlns:xlink="http://www.w3.org/1999/xlink">
    <title>2 - Layer</title>
    <g id="Template---App-Icons" stroke="none" stroke-width="1" fill="none" fill-rule="evenodd">
        <g id="2---Layer" fill="#2B0FF4" fill-rule="nonzero">
            <path d="M352.323591,509.73046 C340.078079,505.474259 326.655115,490.3411 321.238831,474.735029 C317.941962,465.513259 317,455.345668 317,434.064662 C317,409.473277 317.706472,404.034798 322.416284,393.867206 C332.54238,371.640378 349.262213,359.817597 370.691858,359.581141 C384.585804,359.581141 397.066806,364.546709 407.428392,374.477845 L415.199582,382.044425 L413.551148,364.310253 C411.196242,341.610514 409.547808,336.881401 400.128184,331.206466 C390.002088,325.05862 369.514405,325.05862 345.258873,331.206466 C335.132777,333.807478 326.419624,335.935579 325.948643,335.935579 C325.477662,335.935579 325.242171,328.84191 325.713152,320.093052 L326.419624,304.01407 L338.194154,300.940147 C344.787891,299.048502 361.743215,297.629768 375.872651,297.393313 C404.367015,297.156857 418.967432,300.703691 433.332359,311.58065 C441.810021,318.201407 452.407098,338.063679 452.407098,348.231271 C452.407098,360.999875 453.820042,361.945697 473.601253,361.945697 L491.96952,361.945697 L492.911482,407.581632 C493.617954,450.143644 493.853445,453.454023 498.798747,460.311236 C503.508559,466.931993 522.112317,477.33604 524.702714,474.735029 C525.173695,474.025662 524.467223,469.060094 523.28977,463.385159 C521.876827,457.710224 520.699374,444.705165 520.699374,434.774029 C520.699374,402.379608 533.180376,379.679869 557.906889,367.384176 C569.68142,361.709242 574.155741,360.763419 592.524008,360.763419 C617.721503,360.763419 629.731524,365.492531 644.096451,380.389236 L653.516075,390.083916 L658.932359,382.044425 C661.993737,377.315313 669.764927,371.403922 677.771608,367.384176 C689.781628,361.472786 694.020459,360.763419 713.80167,360.763419 C729.815031,360.763419 739.234656,361.945697 747.476827,365.01962 L758.544885,369.512277 L758.544885,387.009993 L758.544885,404.507709 L748.65428,399.542141 C734.995825,392.448472 712.388727,390.793283 702.26263,395.995307 C682.245929,406.399354 679.184551,455.109212 697.317328,473.55275 C702.969102,479.227685 705.79499,480.173508 717.098539,480.173508 C740.412109,480.173508 738.763674,482.301608 764.19666,418.695046 L787.039248,361.472786 L781.622965,350.595827 C774.087265,335.226212 765.845094,330.024188 750.067223,330.024188 L737.350731,330.024188 L737.350731,314.418117 L737.350731,298.575591 L747.947808,297.156857 C773.380793,293.137111 798.578288,305.196348 811.294781,327.423176 C816.004593,335.226212 881,505.710715 881,509.73046 C881,510.439827 871.580376,510.912739 860.041336,510.912739 L838.847182,510.912739 L823.775783,464.330981 C815.533612,438.557318 807.526931,413.729478 806.113987,409.236821 C803.759081,401.19733 803.759081,401.19733 803.523591,407.581632 C803.2881,411.364922 796.223382,435.956307 787.51023,462.439336 L771.96785,510.203372 L738.292693,512.095017 C710.975783,513.277295 702.02714,513.040839 691.901044,509.966916 C677.536117,505.710715 662.229228,495.543123 657.754906,486.794265 L654.458038,480.882875 L642.212526,493.415023 C632.792902,502.636792 626.434656,506.656537 617.250522,509.494005 C596.762839,515.641851 574.626722,513.986662 553.197077,505.001348 C549.900209,503.81907 548.958246,504.528437 548.958246,508.311727 C548.958246,512.804384 547.545303,513.277295 536.712735,513.277295 C521.641336,513.277295 506.334447,506.183626 498.092276,495.306668 C494.559916,490.814011 491.027557,487.267176 490.085595,487.267176 C489.143633,487.267176 487.024217,492.705656 485.375783,499.089957 L482.549896,510.912739 L451.229645,510.912739 L419.909395,510.912739 L418.26096,501.454514 L416.612526,491.996289 L408.134864,499.326413 C392.356994,513.277295 372.811273,517.060585 352.323591,509.73046 Z M402.713772,476.293049 C413.076597,470.873351 416.991442,459.327038 416.991442,433.878021 C417.221727,407.486448 412.846312,398.060886 398.798928,393.348105 C370.013304,383.451265 352.511644,412.199229 361.262474,454.614257 C366.098459,477.235606 383.600118,486.425528 402.713772,476.293049 Z M610.542802,474.207408 C619.713797,466.358759 622.923646,453.03984 621.777271,430.445246 C620.172347,402.380381 612.377001,392.391192 591.742261,392.391192 C571.795346,392.391192 564,404.996597 564,436.391192 C564,468.4993 571.795346,480.391192 592.659361,480.391192 C600.913257,480.391192 605.269479,478.964165 610.542802,474.207408 Z" id="Name" transform="translate(599.1291, 404.6956) scale(1, -1) translate(-599.1291, -404.6956)"></path>
        </g>
    </g>
</svg>